<mxfile host="app.diagrams.net" modified="2023-02-13T23:19:38.999Z" agent="5.0 (Windows NT 10.0; Win64; x64) AppleWebKit/537.36 (KHTML, like Gecko) Chrome/109.0.0.0 Safari/537.36" etag="9-8KWRoocBBlS5-Vmxmn" version="20.8.20" type="github">
  <diagram name="Página-1" id="-CoJNxCVAsOfs3zhAC2D">
    <mxGraphModel dx="1434" dy="796" grid="1" gridSize="10" guides="1" tooltips="1" connect="1" arrows="1" fold="1" page="1" pageScale="1" pageWidth="827" pageHeight="1169" math="0" shadow="0">
      <root>
        <mxCell id="0" />
        <mxCell id="1" parent="0" />
        <mxCell id="JBQIDbvt1LfwExbwXOnw-1" value="Aluno    " style="swimlane;fontStyle=1;align=center;verticalAlign=top;childLayout=stackLayout;horizontal=1;startSize=26;horizontalStack=0;resizeParent=1;resizeParentMax=0;resizeLast=0;collapsible=1;marginBottom=0;" vertex="1" parent="1">
          <mxGeometry x="40" y="40" width="210" height="210" as="geometry" />
        </mxCell>
        <mxCell id="JBQIDbvt1LfwExbwXOnw-2" value="- ra: long&#xa;- nome: String&#xa;- cidade: String" style="text;strokeColor=none;fillColor=none;align=left;verticalAlign=top;spacingLeft=4;spacingRight=4;overflow=hidden;rotatable=0;points=[[0,0.5],[1,0.5]];portConstraint=eastwest;" vertex="1" parent="JBQIDbvt1LfwExbwXOnw-1">
          <mxGeometry y="26" width="210" height="74" as="geometry" />
        </mxCell>
        <mxCell id="JBQIDbvt1LfwExbwXOnw-3" value="" style="line;strokeWidth=1;fillColor=none;align=left;verticalAlign=middle;spacingTop=-1;spacingLeft=3;spacingRight=3;rotatable=0;labelPosition=right;points=[];portConstraint=eastwest;strokeColor=inherit;" vertex="1" parent="JBQIDbvt1LfwExbwXOnw-1">
          <mxGeometry y="100" width="210" height="8" as="geometry" />
        </mxCell>
        <mxCell id="JBQIDbvt1LfwExbwXOnw-4" value="+setRa(ra: long): void&#xa;+setNome(nome: String): void&#xa;+setCidade(cidade: String): void&#xa;+getRa():long&#xa;+getNome(): String&#xa;+getCidade(): String" style="text;strokeColor=none;fillColor=none;align=left;verticalAlign=top;spacingLeft=4;spacingRight=4;overflow=hidden;rotatable=0;points=[[0,0.5],[1,0.5]];portConstraint=eastwest;" vertex="1" parent="JBQIDbvt1LfwExbwXOnw-1">
          <mxGeometry y="108" width="210" height="102" as="geometry" />
        </mxCell>
        <mxCell id="JBQIDbvt1LfwExbwXOnw-6" value="Professor   " style="swimlane;fontStyle=1;align=center;verticalAlign=top;childLayout=stackLayout;horizontal=1;startSize=26;horizontalStack=0;resizeParent=1;resizeParentMax=0;resizeLast=0;collapsible=1;marginBottom=0;" vertex="1" parent="1">
          <mxGeometry x="280" y="40" width="210" height="210" as="geometry" />
        </mxCell>
        <mxCell id="JBQIDbvt1LfwExbwXOnw-7" value="- ctps: String&#xa;- nome: String&#xa;- salario: double" style="text;strokeColor=none;fillColor=none;align=left;verticalAlign=top;spacingLeft=4;spacingRight=4;overflow=hidden;rotatable=0;points=[[0,0.5],[1,0.5]];portConstraint=eastwest;" vertex="1" parent="JBQIDbvt1LfwExbwXOnw-6">
          <mxGeometry y="26" width="210" height="74" as="geometry" />
        </mxCell>
        <mxCell id="JBQIDbvt1LfwExbwXOnw-8" value="" style="line;strokeWidth=1;fillColor=none;align=left;verticalAlign=middle;spacingTop=-1;spacingLeft=3;spacingRight=3;rotatable=0;labelPosition=right;points=[];portConstraint=eastwest;strokeColor=inherit;" vertex="1" parent="JBQIDbvt1LfwExbwXOnw-6">
          <mxGeometry y="100" width="210" height="8" as="geometry" />
        </mxCell>
        <mxCell id="JBQIDbvt1LfwExbwXOnw-9" value="+setCtps(ctps: String): void&#xa;+setNome(nome: String): void&#xa;+setSalario(salario: double): void&#xa;+getCtps(): String&#xa;+getNome(): String&#xa;+getSalario(): double&#xa;" style="text;strokeColor=none;fillColor=none;align=left;verticalAlign=top;spacingLeft=4;spacingRight=4;overflow=hidden;rotatable=0;points=[[0,0.5],[1,0.5]];portConstraint=eastwest;" vertex="1" parent="JBQIDbvt1LfwExbwXOnw-6">
          <mxGeometry y="108" width="210" height="102" as="geometry" />
        </mxCell>
        <mxCell id="JBQIDbvt1LfwExbwXOnw-10" value="Disciplina    " style="swimlane;fontStyle=1;align=center;verticalAlign=top;childLayout=stackLayout;horizontal=1;startSize=26;horizontalStack=0;resizeParent=1;resizeParentMax=0;resizeLast=0;collapsible=1;marginBottom=0;" vertex="1" parent="1">
          <mxGeometry x="520" y="40" width="210" height="210" as="geometry" />
        </mxCell>
        <mxCell id="JBQIDbvt1LfwExbwXOnw-11" value="- sigla: String&#xa;- nome: String&#xa;- carga: int" style="text;strokeColor=none;fillColor=none;align=left;verticalAlign=top;spacingLeft=4;spacingRight=4;overflow=hidden;rotatable=0;points=[[0,0.5],[1,0.5]];portConstraint=eastwest;" vertex="1" parent="JBQIDbvt1LfwExbwXOnw-10">
          <mxGeometry y="26" width="210" height="74" as="geometry" />
        </mxCell>
        <mxCell id="JBQIDbvt1LfwExbwXOnw-12" value="" style="line;strokeWidth=1;fillColor=none;align=left;verticalAlign=middle;spacingTop=-1;spacingLeft=3;spacingRight=3;rotatable=0;labelPosition=right;points=[];portConstraint=eastwest;strokeColor=inherit;" vertex="1" parent="JBQIDbvt1LfwExbwXOnw-10">
          <mxGeometry y="100" width="210" height="8" as="geometry" />
        </mxCell>
        <mxCell id="JBQIDbvt1LfwExbwXOnw-13" value="+setSigla(sigla: String): void&#xa;+setNome(nome: String): void&#xa;+setCarga(carga: int): void&#xa;+getSigla(): String&#xa;+getNome(): String&#xa;+getCarga(): int" style="text;strokeColor=none;fillColor=none;align=left;verticalAlign=top;spacingLeft=4;spacingRight=4;overflow=hidden;rotatable=0;points=[[0,0.5],[1,0.5]];portConstraint=eastwest;" vertex="1" parent="JBQIDbvt1LfwExbwXOnw-10">
          <mxGeometry y="108" width="210" height="102" as="geometry" />
        </mxCell>
      </root>
    </mxGraphModel>
  </diagram>
</mxfile>
